PathFileType	4	(X/Y/Z)	S01_0014_Gait_markers.trc
DataRate	CameraRate	NumFrames	NumMarkers	Units	OrigDataRate	OrigDataStartFrame	OrigNumFrames
250.000000	250.000000	4	54	mm	250.000000	229	367
Frame#	Time	HEAD_ANT			R_HEAD			L_HEAD			C7			R_BACK			L_BACK			STERNUM			R_ACROMION			R_HUM_PROX			R_HUM_ANT			R_HUM_POST			R_ELBOW_LAT			R_ELBOW_MED			R_FOREARM			R_WIRST_LAT			R_WRITS_MED			R_HAND			L_ACROMION			L_HUM_PROX			L_HUM_ANT			L_HUM_POST			L_ELBOW_LAT			L_ELBOW_MED			L_FOREARM			L_WRIST_LAT			L_WIRST_MED			L_HAND			R_ILIAC			SACRUM			L_ILIAC			R_GTROCH			R_THIGH__1			R_THIGH_2			R_THIGH_3			R_THIGH_4			R_SHANK_1			R_SHANK_2			R_SHANK_3			R_SHANK_4			R_HEEL			R_FOOT_LAT			R_FOOT_MED			L_GTROCH			L_THIGH_1			L_THIGH_2			L_THIGH_3			L_THIGH_4			L_SHANK_1			L_SHANK_2			L_SHANK_3			L_SHANK_4			L_HEEL			L_FOOT_LAT			L_FOOT_MED			
		X1	Y1	Z1	X2	Y2	Z2	X3	Y3	Z3	X4	Y4	Z4	X5	Y5	Z5	X6	Y6	Z6	X7	Y7	Z7	X8	Y8	Z8	X9	Y9	Z9	X10	Y10	Z10	X11	Y11	Z11	X12	Y12	Z12	X13	Y13	Z13	X14	Y14	Z14	X15	Y15	Z15	X16	Y16	Z16	X17	Y17	Z17	X18	Y18	Z18	X19	Y19	Z19	X20	Y20	Z20	X21	Y21	Z21	X22	Y22	Z22	X23	Y23	Z23	X24	Y24	Z24	X25	Y25	Z25	X26	Y26	Z26	X27	Y27	Z27	X28	Y28	Z28	X29	Y29	Z29	X30	Y30	Z30	X31	Y31	Z31	X32	Y32	Z32	X33	Y33	Z33	X34	Y34	Z34	X35	Y35	Z35	X36	Y36	Z36	X37	Y37	Z37	X38	Y38	Z38	X39	Y39	Z39	X40	Y40	Z40	X41	Y41	Z41	X42	Y42	Z42	X43	Y43	Z43	X44	Y44	Z44	X45	Y45	Z45	X46	Y46	Z46	X47	Y47	Z47	X48	Y48	Z48	X49	Y49	Z49	X50	Y50	Z50	X51	Y51	Z51	X52	Y52	Z52	X53	Y53	Z53	X54	Y54	Z54	

230	0.916	1243.77099609375	1738.060913085938	-358.8583984374996	1185.03955078125	1696.407104492188	-276.4035034179684	1183.476684570312	1684.71044921875	-423.4655456542965	1046.80224609375	1518.237548828125	-338.1858520507809	983.2789306640625	1319.778930664062	-265.0677185058591	982.5493774414062	1319.591064453125	-404.2003784179685	1231.537841796875	1361.866455078125	-339.8154602050778	1132.1640625	1472.307495117188	-166.2578735351559	1106.348999023438	1309.556396484375	-75.395454406738	1169.78857421875	1225.166259765625	-80.84786224365207	1049.53466796875	1224.390991210938	-59.72209930419895	1095.555053710938	1119.045776367188	-61.97714614868139	1068.922485351562	1116.662475585938	-140.2592010498044	1202.394165039062	938.0383911132812	-69.95534515380838	1237.853637695312	873.80712890625	-113.8352279663084	1174.70849609375	848.7747802734375	-67.92141723632794	1248.184326171875	784.005615234375	-62.75938034057599	1125.199584960938	1473.74072265625	-506.1956176757809	1105.50341796875	1306.813354492188	-601.0496826171872	1170.263061523438	1227.923583984375	-604.6895751953123	1047.96044921875	1227.896484375	-625.3908691406248	1107.917724609375	1124.568115234375	-635.8782958984373	1058.092529296875	1117.539428710938	-576.3072509765623	1214.378784179688	951.9088745117189	-636.7631835937498	1252.608032226562	889.4568481445314	-590.9083251953123	1200.630126953125	870.8582763671876	-650.5443725585935	1276.902465820312	812.0820312500001	-644.0987548828123	1134.855102539062	1063.58349609375	-160.7799224853513	1007.610656738281	1042.402099609375	-331.322570800781	1127.979736328125	1071.147216796875	-507.1879577636716	1086.497924804688	914.5914916992188	-152.4090118408201	1145.43359375	637.6201171875	-162.6896057128905	1200.828247070312	656.360107421875	-154.2784729003905	1212.330322265625	552.61328125	-177.9924774169921	1146.395263671875	555.8771362304688	-177.1358795166014	1028.627807617188	408.5882263183594	-162.1231536865234	1051.34375	354.0287475585938	-173.6524353027343	987.0773315429688	298.1229858398438	-188.1729431152343	948.20703125	348.3670349121094	-180.2028808593749	771.6629028320312	243.8270721435547	-258.1920776367187	844.9887084960938	103.1142196655274	-169.9012908935547	887.7200927734375	68.96862792968756	-257.4994201660156	1103.482055664062	961.1868286132814	-516.1384277343748	1242.708618164062	681.7669067382814	-486.9157409667967	1188.551513671875	691.0498046875001	-509.3003540039061	1186.98193359375	589.6154785156251	-472.7015075683593	1248.743774414062	603.8513793945314	-458.9430236816405	1219.264892578125	325.4075927734376	-448.7654724121093	1161.569702148438	306.413543701172	-454.0677490234374	1153.195068359375	221.7914123535157	-435.5419006347656	1215.831665039062	225.341293334961	-421.0318908691406	1096.226318359375	41.72873306274422	-358.5509033203125	1273.555908203125	20.77944755554209	-425.9043273925781	1307.340209960938	27.35735130310066	-316.1905822753906	
231	0.92	1249.019775390625	1739.003173828125	-359.092376708984	1190.326171875	1697.269287109375	-276.5750122070309	1188.787353515625	1685.654541015625	-423.9294738769527	1052.059814453125	1519.096801757812	-338.5871887207028	988.4987182617188	1320.743530273438	-266.0618896484372	987.7009887695312	1320.57861328125	-404.7868957519528	1236.860717773438	1362.7392578125	-340.2128906249997	1136.968139648438	1473.30078125	-166.5424194335934	1110.694946289062	1310.4638671875	-75.78736114501925	1173.927612304688	1226.010620117188	-80.86336517333957	1053.781127929688	1225.365356445312	-60.55365371704075	1099.679565429688	1120.090942382812	-62.25196075439428	1073.363647460938	1117.62646484375	-140.664123535156	1206.617797851562	939.0755615234375	-70.28864288330057	1242.118286132812	874.837890625	-114.1227722167967	1179.119140625	849.751708984375	-68.33045959472638	1252.656616210938	785.0716552734375	-62.93650817871076	1130.462280273438	1474.600463867188	-506.6519165039059	1111.138916015625	1307.883056640625	-601.5965576171872	1175.897705078125	1229.029052734375	-604.9152832031248	1053.634033203125	1228.837890625	-625.771057128906	1113.852661132812	1125.463134765625	-636.289855957031	1063.828491210938	1118.316772460938	-577.0046386718748	1220.576782226562	953.1942749023439	-636.3183593749998	1258.4755859375	890.8358154296876	-590.1705322265623	1207.010498046875	872.2119750976564	-650.1116943359373	1283.4208984375	813.5311889648439	-643.293518066406	1140.534790039062	1065.04345703125	-161.559387207031	1012.887573242188	1043.361572265625	-331.9281921386716	1134.822875976562	1072.301635742188	-507.4936828613279	1092.218627929688	915.6502075195312	-152.7447052001951	1153.969360351562	638.778076171875	-162.9029693603514	1209.368041992188	657.9849853515625	-154.6553649902342	1220.943969726562	553.6861572265625	-178.5073394775389	1155.303588867188	557.0191040039062	-177.6221313476561	1038.93310546875	408.7872314453126	-162.9864807128905	1062.131713867188	354.2441711425782	-174.2489013671874	998.1181030273438	298.1386718750001	-189.1840820312499	959.1021728515625	348.0260620117188	-180.8503417968749	783.2195434570312	241.0824890136719	-258.8341369628906	859.6010131835938	101.8513259887696	-170.7001800537109	902.9805908203125	68.62922668457037	-257.9906921386719	1108.313232421875	961.9317626953126	-516.497131347656	1245.427734375	681.4928588867189	-487.293975830078	1191.122802734375	691.2188720703126	-509.7395629882811	1189.101928710938	589.8258666992189	-472.9055786132811	1250.844604492188	603.3998413085939	-459.4417419433593	1219.809692382812	325.3733825683595	-448.8123474121093	1162.13134765625	306.6014404296876	-454.0525207519531	1153.495971679688	221.9807434082032	-435.5216369628906	1216.266357421875	225.3471832275391	-421.1747131347656	1096.291259765625	41.86960601806648	-358.4230346679688	1273.555541992188	20.73786544799814	-425.9307861328125	1307.375	27.36237335205085	-316.2403259277344	
232	0.924	1254.350952148438	1739.924194335938	-359.4046020507809	1195.461303710938	1697.996948242188	-277.1223144531246	1193.980224609375	1686.539794921875	-424.1096801757809	1057.235229492188	1520.025756835938	-339.1446533203122	993.5708618164062	1321.400634765625	-266.7294921874997	993.0260009765625	1321.6259765625	-405.5176086425778	1242.053344726562	1363.723266601562	-340.5281677246091	1141.7744140625	1474.208251953125	-166.9951477050778	1115.210815429688	1311.387084960938	-76.05659484863253	1178.20947265625	1226.967895507812	-80.88405609130832	1058.141235351562	1226.304077148438	-61.07954788207981	1103.489868164062	1120.955200195312	-62.69961166381811	1079.969116210938	1117.691772460938	-141.9205017089841	1210.974487304688	940.0795288085938	-70.51942443847635	1246.373779296875	875.822021484375	-114.4297790527342	1183.413452148438	850.697265625	-68.66662597656232	1256.924926757812	785.9921264648438	-63.37305450439435	1135.947143554688	1475.676879882812	-506.8933105468747	1116.68994140625	1308.921752929688	-602.0137329101559	1181.483154296875	1229.684936523438	-604.564758300781	1059.223876953125	1229.8173828125	-626.5100097656248	1119.450561523438	1126.86328125	-636.9078369140623	1071.435302734375	1118.890869140625	-577.2868041992185	1226.630249023438	954.4100341796876	-636.0352783203123	1264.71923828125	892.1949462890626	-589.508361816406	1213.383911132812	873.2507324218751	-649.766418457031	1289.95263671875	814.8656005859376	-642.378234863281	1146.234008789062	1066.562622070312	-162.2763214111326	1017.879516601562	1044.557250976562	-332.6238098144529	1140.270629882812	1073.331298828125	-507.8448181152341	1097.962890625	916.7081298828125	-153.0176086425779	1162.576171875	639.6923828125	-163.4343872070311	1217.8583984375	659.5101928710938	-154.9508514404295	1230.071899414062	555.3618774414062	-179.2403869628905	1164.517211914062	557.9800415039062	-178.0771484374999	1049.190307617188	409.0933837890626	-163.9012145996093	1072.822631835938	354.7653503417969	-175.2917022705077	1009.492980957031	297.7383728027344	-190.4721374511718	970.1676635742188	347.4309082031251	-181.7879791259765	794.8336181640625	238.0291137695313	-259.6197509765624	874.3486328125	100.4513626098633	-171.357421875	918.0785522460938	67.93589019775396	-259.0895385742188	1113.178344726562	962.3710937500001	-516.9027099609373	1247.89404296875	681.1053466796876	-487.8156127929686	1193.80908203125	691.5866699218751	-509.7975158691405	1190.825805664062	589.9769287109376	-473.083282470703	1252.610229492188	602.9619140625001	-459.7697753906249	1220.379028320312	325.3793029785157	-448.9674682617187	1162.698608398438	306.8243713378907	-454.0643615722656	1153.705322265625	222.1322174072266	-435.4553833007812	1216.922973632812	225.0690460205079	-421.0216674804687	1096.327880859375	42.03810119628914	-358.3016662597656	1273.571411132812	20.70942306518564	-425.9565124511719	1307.4677734375	27.35473632812507	-316.26953125	
233	0.928	1259.52587890625	1740.698852539062	-359.6867065429684	1200.646362304688	1698.982543945312	-277.5434875488277	1199.303588867188	1687.419189453125	-424.4144287109371	1062.464477539062	1521.079345703125	-339.5895080566403	998.8146362304688	1322.1572265625	-267.5325622558591	998.024169921875	1322.578002929688	-406.2555236816403	1247.17626953125	1364.678955078125	-340.7545776367185	1146.623168945312	1475.11181640625	-167.3007965087887	1119.288452148438	1312.34375	-76.46605682373017	1182.444946289062	1227.800170898438	-80.6574401855466	1062.116088867188	1227.421875	-61.8619308471677	1110.643798828125	1121.32568359375	-62.42491531372045	1083.9091796875	1118.732666015625	-142.3129272460935	1215.153564453125	941.05224609375	-70.81365966796854	1250.678466796875	876.8722534179688	-114.7516174316404	1187.990234375	851.4808959960938	-68.97869110107403	1261.23876953125	787.0901489257812	-63.59040832519513	1141.493896484375	1476.669921875	-507.1927795410153	1122.219482421875	1309.824829101563	-602.5592041015622	1187.0703125	1231.054565429688	-605.6640624999998	1064.860229492188	1230.79638671875	-626.7401123046873	1125.389526367188	1127.663330078125	-637.198059082031	1074.82275390625	1120.558227539063	-578.3007812499998	1232.8134765625	955.6062622070314	-635.7372436523435	1270.622680664062	893.6132812500001	-588.710021972656	1219.88671875	874.5230102539064	-649.3583374023435	1296.470703125	816.1413574218751	-641.2745971679685	1151.862670898438	1068.0439453125	-163.033508300781	1023.267761230469	1045.491455078125	-333.2102966308591	1145.540283203125	1074.109375	-508.3028259277341	1103.85009765625	917.7973022460938	-153.2472076416014	1171.039916992188	640.9006958007812	-163.5296478271483	1226.107177734375	661.0142211914062	-155.6779174804686	1239.256713867188	556.956787109375	-179.9822692871093	1173.691772460938	559.180419921875	-178.3911743164061	1059.623413085938	409.1540832519532	-164.7134246826171	1083.691772460938	355.0105895996094	-176.123077392578	1021.007751464844	297.4855346679688	-191.0391540527343	981.0396728515625	346.8154296875001	-182.5825195312499	806.6317749023438	234.7773437500001	-260.2828369140624	889.3119506835938	98.90370941162114	-172.0284881591797	933.615478515625	67.32089996337896	-260.1036682128906	1117.960571289062	962.9045410156251	-517.4405517578123	1250.395385742188	680.6719360351564	-487.9942932128905	1196.466064453125	691.7330322265626	-509.9596252441405	1192.5390625	590.1352539062501	-472.9872741699218	1254.756958007812	602.7053222656251	-460.0939636230468	1220.912109375	325.3275146484376	-449.0438232421874	1163.758911132812	306.3805236816407	-453.4881591796874	1153.822998046875	222.3817596435548	-435.4517822265624	1217.2724609375	225.0670471191407	-421.1287536621093	1096.411865234375	42.24227142333992	-358.1950988769531	1273.56201171875	20.71436309814463	-425.9755554199219	1307.561889648438	27.36115264892585	-316.294677734375	
